/* XPM */
static const char *comment[]={
"16 16 4 1",
"b c #000000",
"a c #000080",
"# c #800000",
". c #d4d0c8",
"................",
"................",
"................",
".#..............",
".##........a....",
".###.....a.a.b..",
".####.....aaa...",
".#####..aaaaaa..",
".####.....aaa...",
".###.....a.a.b..",
".##........a....",
".#..............",
"................",
"................",
"................",
"................"};
