/* XPM */
static const char *document[]={
"12 16 6 1",
"# c None",
"c c #000000",
". c #040404",
"b c #808304",
"d c #f3f7f3",
"a c #ffffff",
".......#####",
".aaaaa..####",
".aaaaa.a.###",
".aaaaa.aa.##",
".abbaa....c#",
".adaaadaaac#",
".aaaaaaaaac#",
".abbbabbaac#",
".aaaaaaaaac#",
".aaaaaaaaac#",
".abaabbbaac#",
".aaaaaaaaac#",
"caaaaaaaaac#",
"caaaaaaaaac#",
"ccccccccccc#",
"############"};
