/* XPM */
static char *go[]={
"16 16 3 1",
"# c #000000",
". c #c6c6c6",
"a c #ffff00",
"................",
"................",
"................",
".......#........",
".......##.......",
".......#a#......",
"...#####aa#.....",
"...#aaaaaaa#....",
"...#aaaaaaaa#...",
"...#aaaaaaa#....",
"...#####aa#.....",
".......#a#......",
".......##.......",
".......#........",
"................",
"................"};
