/* XPM */
static char *help[]={
"16 16 7 1",
"# c #000000",
"e c #000080",
"c c #808080",
"d c #c0c0c0",
". c #d4d0c8",
"b c #ffff00",
"a c #ffffff",
"..###########...",
".#aaabaaabaaa#..",
".#abaaabaaaba#c.",
".#aaadeeeedaa#c.",
".#abaeebdeeba#c.",
".#aaaecaaeeaa#c.",
".#abaaabcecba#c.",
".#aaabacedaaa#c.",
".#abaaaecaaba#c.",
".#aaabaaabaaa#c.",
".#abaaaeeaaba#c.",
".#aaabababaaa#c.",
"..#######aa##c..",
"...cccccc#b#c...",
"..........##....",
"...........#...."};
