/* XPM */
static const char *unindent[]={
"16 16 3 1",
"# c #000080",
"a c #800000",
". c #d4d0c8",
"................",
"................",
"................",
".##.....a.......",
".##....aa.......",
".##...aaa.......",
".##..aaaa.......",
".##.aaaaa.......",
".##..aaaa.......",
".##...aaa.......",
".##....aa.......",
".##.....a.......",
"................",
"................",
"................",
"................"};
