/* XPM */
static char *stepinto[]={
"16 16 4 1",
"b c #000000",
"# c #000080",
"a c #808080",
". c #c6c6c6",
"................",
"#######a........",
".......#a.......",
"........#.......",
"....bb..#..bb...",
"...bb...#...bb..",
"...bb...#...bb..",
"...bb.#####.bb..",
"...bb..###..bb..",
"..bb....#....bb.",
"...bb.......bb..",
"...bb.......bb..",
"...bb.......bb..",
"...bb.......bb..",
"....bb.....bb...",
"................"};
