/* XPM */
static const char *uncomment[]={
"16 16 25 1",
"u c #010101",
"s c #020282",
"p c #030303",
"t c #030383",
"r c #040484",
"q c #050585",
"m c #060686",
"o c #080888",
"j c #800000",
"i c #d4d0c8",
"n c #d5d1c9",
"g c #d6d2ca",
"w c #d7d3cb",
"f c #d8d4cc",
"v c #d9d5cd",
"e c #dad6ce",
"l c #dbd7cf",
"d c #dcd8d0",
"k c #ddd9d1",
"c c #dedad2",
"h c #dfdbd3",
"b c #e0dcd4",
"a c #e2ded6",
"# c #e4e0d8",
". c #e6e2da",
"...#aabbcddeffgg",
"...#aabbcddeffgg",
"hcddeffgciiiijii",
"ckdlmffgniiijjii",
"cdoemfpgniijjjii",
"kdlmqrggnijjjjii",
"dommrrsnnjjjjjii",
"dleqrtginijjjjii",
"leqftguiniijjjii",
"evfwsgiiniiijjii",
"vfwggniiniiiijii",
"nnnnnnnnniiiiiii",
"nnnnnnnfwggniiii",
"vvvvvffwggniiiii",
"ffffwwwgnniiiiii",
"wwwwggnniiiiiiii"};
