/* XPM */
static char *check_danger[]={
"17 13 3 1",
"a c #000000",
"# c #fc0204",
". c #ffffff",
".................",
".......##a.......",
".......##a.......",
".......##a.......",
".......##a.......",
".......##a.......",
".......##a.......",
".................",
".................",
".......##a.......",
".......##a.......",
".................",
"................."};
