/* XPM */
static const char *compile[]={
"16 16 5 1",
"a c #000000",
"# c #000080",
"b c #808080",
". c #d4d0c8",
"c c #ffffff",
".......##.aa....",
".......##bcca...",
"......a##cccca..",
"....abc##ccccca.",
"..aac######cccca",
".acccc####cccaa.",
"..acccc##ccaaca.",
"..aacccccaacccca",
".accaccaaccccaa.",
"..accaaccccaacca",
".acacccccaaccaa.",
"..acaccaaccaa...",
"...acaaccaa.....",
"....accaa.......",
".....aa.........",
"................"};
