/* XPM */
const static char *errortrace[]={
"16 16 6 1",
"# c #000084",
"d c #840000",
"b c #848284",
". c #d6d3ce",
"c c #ff0000",
"a c #ffffff",
"................",
"...#a########a#.",
"...aaaaaaaaaaaab",
"...acabbbbbabbab",
"...aaaaaaaaaaaab",
"...acabbbbbabbab",
"..caaaaacaaaaaab",
"..ddbabddbbabbab",
"..ddbccdaaaaaaab",
"...cdddbbbbabbab",
"...cdddaaaaaaaab",
"..ddddddbbbbbbbb",
".cdd.dddb.......",
".cb...cb........",
"................",
"................"};
