/* XPM */
static const char *folderopen[]={
"16 16 5 1",
"c c #000000",
"# c #999999",
"b c #cccccc",
"a c #ffff00",
". c #ffffff",
"................",
"................",
"...#####........",
"..#.....#.......",
".#.ababa.######.",
".#.babab......#c",
".#.abababababa#c",
"#############a#c",
"#..........##b#c",
"#.ababababaac##c",
".#.abababababc#c",
".#.bababababac#c",
"..#.babababaa#cc",
"..#############c",
"...ccccccccccccc",
"................"};
