/* XPM */
static char *hierarchy[]={
"16 16 6 1",
"# c #000000",
"a c #000080",
"b c #00ffff",
"c c #808080",
". c #d4d0c8",
"d c #ff00ff",
"................",
"................",
".#######.....#..",
".#aaaaa#....#b#.",
".#aaaaa#...c##b#",
".#aaaaa#########",
".#aaaaa#..#..c#c",
".#aaaaa#..#.....",
".#######..#.....",
"..........#..#..",
"..........#.#d#.",
"..........#c##d#",
"..........######",
".............c#c",
"................",
"................"};
