/* XPM */
static const char *indent[]={
"16 16 3 1",
"a c #000080",
"# c #800000",
". c #d4d0c8",
"................",
"................",
"................",
".#.....aa.......",
".##....aa.......",
".###...aa.......",
".####..aa.......",
".#####.aa.......",
".####..aa.......",
".###...aa.......",
".##....aa.......",
".#.....aa.......",
"................",
"................",
"................",
"................"};
