/* XPM */
const static char *instructiontrace[]={
"16 16 6 1",
"b c #000000",
"c c #000084",
"d c #00ffff",
"# c #848284",
". c #d6d3ce",
"a c #ffffff",
".....###########",
".#aaa#aaaaaab..b",
"a#aaaaaab..b....",
"####b..b.c...#aa",
"b..b.cc..#######",
".ccc.#ddd#dddddd",
".#ddd#ddddddb..b",
"########b..b.cc.",
"aaaab..b.c...###",
"b..b.....#aaa#aa",
".....#aaa#aaaaaa",
".bbbbbbbbbbbb..b",
"...........b....",
".......b........",
"...b............",
"................"};
