/* XPM */
static char *leftarrow[]={
"16 16 3 1",
"# c #000000",
"a c #00ffff",
". c #d4d0c8",
"................",
"................",
"................",
"......#.........",
".....##.........",
"....#a#.........",
"...#aa########..",
"..#aaaaaaaaaa#..",
".#aaaaaaaaaaa#..",
"..#aaaaaaaaaa#..",
"...#aa########..",
"....#a#.........",
".....##.........",
"......#.........",
"................",
"................"};
