/* XPM */
const static char *syscheck[]={
"16 16 5 1",
"# c #000000",
"c c #00ffff",
"a c #848284",
". c #d6d3ce",
"b c #ffffff",
"................",
".....#..........",
"....#.#.......#.",
"...#..#......#.#",
"..#...#.....#..#",
".#.........#...#",
"a###.##.###a....",
"#bbc#..#bbc#....",
"#bc.#..#bc.#....",
"#c.c#..#c.c#....",
"#.c.#..#.c.#....",
".###....###.....",
"................",
"................",
"................",
"................"};
