/* XPM */
static char *tree[]={
"16 16 5 1",
"a c #000000",
"# c #808080",
". c #d4d0c8",
"c c #ffff00",
"b c #ffffff",
".###............",
"a#ba.aaaaa......",
".aaa............",
"..a.............",
"..a.###.........",
"..aa#ca.aaaaa...",
"..a.aaa.........",
"..a.............",
"..a.###.........",
"..aa#ba.aaaaa...",
"..a.aaa.........",
"..a..a..........",
"..a..a.###......",
"..a..aa#ca.aaaaa",
"..a....aaa......",
"................"};
