/* XPM */
static char *viewdb[]={
"16 16 7 1",
"a c #000000",
"# c #000080",
"c c #808000",
"d c #c0c000",
"e c #c0c0c0",
". c #d4d0c8",
"b c #ffff00",
"....#######.....",
".#aabbbbbbbaa#..",
"abbbbbbbbbbbbba.",
"abbbbbbbbbbbbba.",
"#aabbbbbbbbbaaa.",
"abaaaaaaaaaaaca.",
"abbbbbbbbbbddca.",
"abbbbbbbbbbddca.",
"abbbbbbbbcaaaca.",
"abbbbbbbcaceaaa.",
"abbbbbbbaceeeaa.",
"abbbbbbbaeeeea#.",
".#aabbbbaaedea..",
"....#####aaaaaa.",
".............aaa",
"..............aa"};
