/* XPM */
static char *check_obs[]={
"17 13 3 1",
"a c #040204",
"# c #d1d1d1",
". c #ffffff",
".................",
".................",
"...........#.....",
"..........##a....",
".........###a....",
"....#...###a.....",
"....##.###a......",
"....#####a.......",
".....###a........",
"......#a.........",
".................",
".................",
"................."};
