/* XPM */
static const char *drive[]={
"16 16 19 1",
"b c #000000",
"i c #000084",
"g c #008400",
"f c #00ce00",
"q c #3131ce",
"l c #3163ce",
"j c #639cce",
"# c #737373",
"k c #848484",
"h c #949494",
"c c #9c9c9c",
"a c #b5b5b5",
"e c #c6c6c6",
"o c #ce9c9c",
"d c #d6d6d6",
"m c #efd6c6",
"p c #efefef",
"n c #fffff7",
". c #ffffff",
"................",
"................",
"................",
"..#############.",
".#aaaaaaaaaaaa#b",
"#............c#b",
"#deeeeeeeafgah#b",
"iiiieeeeaaaaah#b",
"jjjikkkkkkk#ah#b",
"llliamnopeekah#b",
"qqqiommekkbbbbb.",
"iiiiboomeeeoob..",
"bbbb.booooobb...",
"......bbbbb.....",
"................",
"................"};
