/* XPM */
static const char *fileclose[]={
"16 16 6 1",
"a c #000000",
". c #000080",
"d c #800000",
"c c #808080",
"# c #d4d0c8",
"b c #ffffff",
"............####",
"............####",
"abbbbbbbbbba####",
"abccbccbccba####",
"abbbbbbbbbba####",
"abccbccbccba####",
"abbbbbbbbbbddc##",
"abccbcddccdac###",
"abbbbbbcdddc####",
"abccbccbcdda####",
"abbbbbbbdddd####",
"aaaaaaaadccdd###",
"######cdc##cdc##",
"######dd####cdc#",
"######d######cc#",
"################"};
