/* XPM */
static const char *filenew[]={
"15 16 6 1",
"b c #000000",
"a c #808080",
". c #c6c6c6",
"d c #d4d0c8",
"# c #ffff00",
"c c #ffffff",
"...............",
"#..a#..abbb....",
"a#.ac.a#ccbb...",
"da#a#a#cccbcb..",
"d#a#caaaacbccb.",
"aaac##ccccbbbbb",
"..caccabbcccccb",
"a..a#cccccccccb",
"...acbbbbbbbccb",
"...bccccccccccb",
"...bcbbbbbbbccb",
"...bccccccccccb",
"...bcbbbbbbbccb",
"...bccccccccccb",
"...bccccccccccb",
"...bbbbbbbbbbbb"};
