/* XPM */
static const char *filesaveall[]={
"16 16 4 1",
"# c #000000",
"a c #808000",
". c #c6c6c6",
"b c #ffffff",
"................",
".....###########",
".....#a#bbbbb#b#",
"...#############",
"...#a#bbbbb#b#a#",
".#############a#",
".#a#bbbbb#b#a#a#",
".#a#bbbbb###a#a#",
".#a#bbbbb#a#a#a#",
".#a#bbbbb#a#a#a#",
".#aa#####aa#a#a#",
".#aaaaaaaaa#a###",
".#aa######a#a#..",
".#aa####b#a###..",
".#aa####b#a#....",
"..##########...."};
