/* XPM */
const static char *optionoff[]={
"16 15 3 1",
"# c #a0a0a0",
"a c #c0c0c0",
". c #d6d3ce",
"................",
"................",
"................",
"................",
"...###..........",
"..##a##.........",
"..#aaa#.........",
"..##a##.........",
"...###..........",
"................",
"................",
"................",
"................",
"................",
"................"};
