/* XPM */
const static char *optionon[]={
"16 16 2 1",
". c #d6d3ce",
"# c #ff0000",
"................",
"................",
"................",
"...#.#..........",
".#.....#........",
"...###..........",
"#.#####.#.......",
"..#####.........",
"#.#####.#.......",
"...###..........",
".#.....#........",
"...#.#..........",
"................",
"................",
"................",
"................"};
