/* XPM */
static char *runto[]={
"16 16 3 1",
"a c #000000",
"# c #000080",
". c #c6c6c6",
"................",
"................",
"................",
"................",
"...#...aa...aa..",
"...##.aa.....aa.",
"######aa.....aa.",
"...##.aa.....aa.",
"...#..aa.....aa.",
".....aa.......aa",
"......aa.....aa.",
"......aa.....aa.",
"......aa.....aa.",
"......aa.....aa.",
".......aa...aa..",
"................"};
