/* XPM */
static char *stepover[]={
"16 16 4 1",
"b c #000000",
"a c #000080",
"# c #808080",
". c #c6c6c6",
"................",
"#aaaaaaaaaa#....",
"a..........a#...",
"............a...",
"...bb.bb....a...",
"..bb...bb...a...",
"..bb...bb...a...",
"..bb...bb.aaaaa.",
"..bb...bb..aaa..",
".bb.....bb..a...",
"..bb...bb.......",
"..bb...bb.......",
"..bb...bb.......",
"..bb...bb.......",
"...bb.bb........",
"................"};
